HIERARCHY
ROOT hip
{
	OFFSET 0.000000 0.000000 0.000000
	CHANNELS 6 Xposition Yposition Zposition Xrotation Zrotation Yrotation 
	JOINT abdomen
	{
		OFFSET 0.000000 3.422050 0.000000
		CHANNELS 3 Xrotation Zrotation Yrotation 
		JOINT chest
		{
			OFFSET 0.000000 8.486693 -0.684411
			CHANNELS 3 Xrotation Zrotation Yrotation 
			JOINT neck
			{
				OFFSET 0.000000 10.266162 -0.273764
				CHANNELS 3 Xrotation Zrotation Yrotation 
				JOINT head
				{
					OFFSET 0.000000 3.148285 0.000000
					CHANNELS 3 Xrotation Zrotation Yrotation 
					End Site
					{
						OFFSET 0.000000 3.148289 0.000000
					}
				}
			}
			JOINT lCollar
			{
				OFFSET 3.422053 6.707223 -0.821293
				CHANNELS 3 Yrotation Zrotation Xrotation 
				JOINT lShldr
				{
					OFFSET 3.285171 0.000000 0.000000
					CHANNELS 3 Zrotation Yrotation Xrotation 
					JOINT lForeArm
					{
						OFFSET 10.129278 0.000000 0.000000
						CHANNELS 3 Yrotation Zrotation Xrotation 
						JOINT lHand
						{
							OFFSET 8.486692 0.000000 0.000000
							CHANNELS 3 Zrotation Yrotation Xrotation 
							End Site
							{
								OFFSET 4.106464 0.000000 0.000000
							}
						}
					}
				}
			}
			JOINT rCollar
			{
				OFFSET -3.558935 6.707223 -0.821293
				CHANNELS 3 Yrotation Zrotation Xrotation 
				JOINT rShldr
				{
					OFFSET -3.148289 0.000000 0.000000
					CHANNELS 3 Zrotation Yrotation Xrotation 
					JOINT rForeArm
					{
						OFFSET -10.266159 0.000000 0.000000
						CHANNELS 3 Yrotation Zrotation Xrotation 
						JOINT rHand
						{
							OFFSET -8.349810 0.000000 0.000000
							CHANNELS 3 Zrotation Yrotation Xrotation 
							End Site
							{
								OFFSET -4.106464 0.000000 0.000000
							}
						}
					}
				}
			}
		}
	}
	JOINT lThigh
	{
		OFFSET 5.338403 -1.642589 1.368821
		CHANNELS 3 Xrotation Zrotation Yrotation 
		JOINT lShin
		{
			OFFSET -2.053232 -20.121670 0.000000
			CHANNELS 3 Xrotation Zrotation Yrotation 
			JOINT lFoot
			{
				OFFSET 0.000000 -19.300380 -1.231939
				CHANNELS 3 Xrotation Yrotation Zrotation 
				End Site
				{
					OFFSET 0.000000 -2.463878 4.653993
				}
			}
		}
	}
	JOINT rThigh
	{
		OFFSET -5.338403 -1.642589 1.368821
		CHANNELS 3 Xrotation Zrotation Yrotation 
		JOINT rShin
		{
			OFFSET 2.053232 -20.121670 0.000000
			CHANNELS 3 Xrotation Zrotation Yrotation 
			JOINT rFoot
			{
				OFFSET 0.000000 -19.300380 -1.231939
				CHANNELS 3 Xrotation Yrotation Zrotation 
				End Site
				{
					OFFSET 0.000000 -2.463878 4.653993
				}
			}
		}
	}
}
MOTION
Frames: 8
Frame Time: 0.033264
0.000000 43.528500 0.000000 0.000000 0.000000 0.000000 0.000000 0.000000 0.000000 0.000000 0.000000 0.000000 0.000000 0.000000 0.000000 0.000000 0.000000 0.000000 0.000000 0.000000 0.000000 0.000000 0.000000 0.000000 0.000000 0.000000 0.000000 0.000000 0.000000 0.000000 0.000000 0.000000 0.000000 0.000000 0.000000 0.000000 0.000000 0.000000 0.000000 0.000000 0.000000 0.000000 0.000000 0.000000 0.000000 0.000000 0.000000 0.000000 0.000000 0.000000 0.000000 0.000000 0.000000 0.000000 0.000000 0.000000 0.000000 0.000000 0.000000 0.000000 
-12.937112 10.262096 1.522891 0.000000 0.000000 173.993835 -0.659380 4.341292 -28.281664 -0.179655 0.465709 -0.750873 -13.000401 0.000000 0.000000 -13.001502 12.998057 -30.003351 -29.578878 -47.336258 -11.402966 -32.011135 -18.047987 9.882291 -63.107616 -10.676329 -11.954528 -7.000325 0.000000 0.000000 17.077095 13.644804 -3.826214 4.983206 21.492613 0.281877 48.430874 16.273691 -7.708263 12.346355 39.704979 -5.650581 -91.206810 23.339111 29.941084 52.224281 -30.999651 -0.260857 54.315605 -7.941629 46.373257 -103.189949 -5.578785 -0.241744 48.204926 2.334894 0.180614 23.759809 1.328383 -14.664567 
-12.937112 10.262096 1.522891 0.000000 0.000000 173.993835 -0.659380 4.341292 -28.281664 -0.179655 0.465709 -0.750873 -12.931458 0.006566 0.108524 -13.001502 12.998057 -30.003351 -29.578878 -47.336258 -11.402966 -32.011135 -18.047987 9.882291 -63.107616 -10.676331 -11.954529 -7.000325 0.000000 0.000000 17.077097 13.644805 -3.826214 4.983206 21.492613 0.281877 48.430874 16.273691 -7.708263 12.266405 39.524673 -6.042079 -91.206810 23.339111 29.941084 52.224289 -30.999655 -0.260857 54.315605 -7.941631 46.373257 -103.189949 -5.578785 -0.241744 48.204926 2.334894 0.180614 23.759809 1.328383 -14.664567 
-12.937112 10.262096 1.522891 0.000000 0.000000 173.993835 -0.659380 4.341292 -28.281664 -0.179655 0.465709 -0.750873 -12.862494 0.013003 0.217069 -13.001503 12.998058 -30.003355 -29.578878 -47.336258 -11.402966 -32.011135 -18.047987 9.882291 -63.107616 -10.676330 -11.954528 -7.000325 0.000000 0.000000 17.077095 13.644805 -3.826215 4.983206 21.492613 0.281877 48.430878 16.273693 -7.708264 12.188160 39.343735 -6.432711 -91.206810 23.339111 29.941084 52.224281 -30.999651 -0.260857 54.315605 -7.941629 46.373257 -103.189949 -5.578785 -0.241744 48.204933 2.334894 0.180614 23.759809 1.328383 -14.664567 
-12.937112 10.262096 1.522891 0.000000 0.000000 173.993835 -0.659380 4.341292 -28.281664 -0.179655 0.465709 -0.750873 -12.793507 0.019310 0.325635 -13.001502 12.998057 -30.003355 -29.578882 -47.336269 -11.402966 -32.011135 -18.047987 9.882291 -63.107616 -10.676331 -11.954529 -7.000325 0.000000 0.000000 17.077097 13.644805 -3.826214 4.983206 21.492615 0.281877 48.430882 16.273691 -7.708263 12.111628 39.162182 -6.822477 -91.206810 23.339111 29.941084 52.224293 -30.999655 -0.260858 54.315609 -7.941633 46.373260 -103.189949 -5.578785 -0.241744 48.204929 2.334894 0.180614 23.759809 1.328383 -14.664567 
-12.937112 10.262096 1.522891 0.000000 0.000000 173.993835 -0.659381 4.341292 -28.281666 -0.179655 0.465709 -0.750873 -12.724506 0.025486 0.434222 -13.001502 12.998057 -30.003355 -29.578878 -47.336258 -11.402965 -32.011139 -18.047991 9.882292 -63.107616 -10.676329 -11.954528 -7.000325 0.000000 0.000000 17.077095 13.644804 -3.826214 4.983206 21.492613 0.281877 48.430882 16.273691 -7.708263 12.036786 38.980000 -7.211377 -91.206810 23.339109 29.941084 52.224285 -30.999651 -0.260857 54.315609 -7.941628 46.373257 -103.189949 -5.578785 -0.241744 48.204929 2.334894 0.180614 23.759811 1.328383 -14.664567 
-12.937112 10.262096 1.522891 0.000000 0.000000 173.993835 -0.659381 4.341293 -28.281664 -0.179655 0.465709 -0.750873 -12.655478 0.031533 0.542829 -13.001503 12.998058 -30.003355 -29.578878 -47.336258 -11.402966 -32.011135 -18.047987 9.882291 -63.107616 -10.676331 -11.954529 -7.000325 0.000000 0.000000 17.077097 13.644805 -3.826214 4.983206 21.492617 0.281878 48.430874 16.273691 -7.708263 11.963649 38.797237 -7.599421 -91.206810 23.339111 29.941084 52.224289 -30.999655 -0.260856 54.315613 -7.941628 46.373264 -103.189949 -5.578785 -0.241744 48.204929 2.334894 0.180614 23.759809 1.328383 -14.664567 
-12.937112 10.262096 1.522891 0.000000 0.000000 173.993835 -0.659380 4.341292 -28.281662 -0.179655 0.465709 -0.750873 -12.586437 0.037449 0.651456 -13.001502 12.998057 -30.003351 -29.578876 -47.336254 -11.402965 -32.011135 -18.047987 9.882290 -63.107616 -10.676329 -11.954528 -7.000325 0.000000 0.000000 17.077093 13.644803 -3.826214 4.983205 21.492613 0.281877 48.430870 16.273689 -7.708262 11.892204 38.613876 -7.986603 -91.206810 23.339111 29.941080 52.224277 -30.999647 -0.260856 54.315601 -7.941628 46.373249 -103.189934 -5.578784 -0.241744 48.204926 2.334894 0.180614 23.759808 1.328383 -14.664565 
